:SAMPLES-PER-SECOND 24
:FULLY-SPECIFIED
:DEGREES
17
root  -0.716071 39.7823 59.388 174.21 51.9105 169.924
RightUpLeg  3.30312 -12.3025 -20.9962
RightLeg  20.2618 13.2287 5.12828
RightFoot  -9.23997 -0.38408 17.2129
RightToes  -1.74623e-010 0 -2.59999e-017
Spine  5.41462 1.55209 -1.12713
Spine1  10.2307 2.0038 -3.14007
HEad  -20.5846 39.9576 -26.4142
LeftShoulder1  1.65282 -2.56178 -20.8411
LeftArm  5.34357 17.9296 -36.2068
LeftForeArm  80.3923 -79.8039 -72.867
LeftHand  -0.0911063 4.32179 8.48744
RightShoulder  2.97085 5.40539 27.3693
RightArm  3.78488 -27.9602 37.3237
RightForeArm  117.084 79.1752 113.623
RightHand  0.0159167 -2.95614 1.76029
LeftUpLeg  -20.9025 27.0774 3.63597
LeftLeg  23.7032 -3.52084 -1.3167
LeftFoot  1.20486 1.26201 -11.5246
LeftToes  -6.27559e-011 -2.10356e-011 8.24929e-012
18
root  -0.931678 39.001 59.1205 177.378 47.6779 172.796
RightUpLeg  7.26421 -15.8958 -19.9331
RightLeg  16.4523 12.1059 3.95625
RightFoot  -14.0087 0.264762 15.393
RightToes  -1.74623e-010 0 -2.59999e-017
Spine  6.28681 0.591815 0.654069
Spine1  9.54996 0.964841 -2.1646
HEad  -21.5175 37.3863 -25.9596
LeftShoulder1  1.69424 -2.63849 -21.1985
LeftArm  5.2982 13.0103 -33.0128
LeftForeArm  70.3089 -79.1072 -63.8962
LeftHand  -0.0384869 5.15626 10.6177
RightShoulder  3.03036 5.44233 27.9145
RightArm  4.45292 -25.4344 34.5156
RightForeArm  106.703 79.5907 105.504
RightHand  -0.0361785 -3.8801 -1.2222
LeftUpLeg  -25.7669 32.6444 2.14158
LeftLeg  17.7466 -1.25617 -0.733572
LeftFoot  1.84123 0.994089 -8.68907
LeftToes  -6.27559e-011 -2.10356e-011 8.24929e-012
19
root  -1.18483 38.238 58.642 -178.268 45.5051 177.345
RightUpLeg  8.69346 -14.9088 -16.2814
RightLeg  13.4353 5.49048 2.45871
RightFoot  -18.7133 0.90008 15.8804
RightToes  -1.74623e-010 0 -2.59999e-017
Spine  5.54045 0.437489 4.2685
Spine1  10.9436 0.902669 -1.7095
HEad  -23.5885 35.4538 -26.9006
LeftShoulder1  1.90082 -2.9059 -23.3955
LeftArm  3.1081 10.5568 -31.4567
LeftForeArm  55.2126 -76.721 -46.7993
LeftHand  -0.0726723 4.95767 14.9496
RightShoulder  3.13144 5.59901 28.4578
RightArm  5.4346 -12.8497 34.4976
RightForeArm  46.0482 75.4374 44.4178
RightHand  0.0644219 -6.56292 -7.74269
LeftUpLeg  -28.9291 34.6087 4.65597
LeftLeg  12.9654 11.3651 -2.37079
LeftFoot  2.4695 1.00692 -8.42894
LeftToes  -6.27559e-011 -2.10356e-011 8.24929e-012
20
root  -1.35405 37.7582 57.7604 -175.828 44.9596 -178.978
RightUpLeg  9.67617 -14.349 -14.3718
RightLeg  13.603 2.98538 1.48909
RightFoot  -19.036 0.936162 15.6927
RightToes  -1.74623e-010 0 -2.59999e-017
Spine  3.95493 1.94652 6.43371
Spine1  14.2118 2.21119 -0.955066
HEad  -23.4985 33.0893 -26.3817
LeftShoulder1  2.06925 -3.11619 -25.0816
LeftArm  3.78234 11.4701 -33.9331
LeftForeArm  35.9275 -70.5833 -29.6431
LeftHand  -0.093733 4.97683 23.6662
RightShoulder  3.21225 5.76705 28.7102
RightArm  7.53299 7.0983 39.1698
RightForeArm  20.4614 62.5744 19.7978
RightHand  0.99338 -11.7119 -18.0521
LeftUpLeg  -25.8171 29.119 11.855
LeftLeg  8.7999 40.3491 -5.03857
LeftFoot  3.7789 0.596172 -4.69955
LeftToes  -6.27559e-011 -2.10356e-011 8.24929e-012
21
root  -1.21748 37.5659 56.2889 -175.951 42.5479 -177.45
RightUpLeg  14.3959 -14.9632 -15.6878
RightLeg  12.0765 3.0637 2.24513
RightFoot  -16.6515 0.716004 17.6475
RightToes  -1.74623e-010 0 -2.59999e-017
Spine  2.86644 4.52157 6.76108
Spine1  14.8546 4.50799 0.215281
HEad  -17.9683 27.7866 -20.0464
LeftShoulder1  2.16269 -3.2854 -25.7034
LeftArm  8.68652 15.8209 -34.9498
LeftForeArm  25.932 -65.8985 -23.2446
LeftHand  -0.254777 4.25636 25.9347
RightShoulder  3.29224 5.86318 29.2263
RightArm  5.97096 24.313 47.595
RightForeArm  19.5406 61.7637 19.3413
RightHand  1.71721 -12.8724 -26.4889
LeftUpLeg  -25.0653 31.9706 10.8621
LeftLeg  11.0153 50.4352 -2.75672
LeftFoot  4.64392 -0.384757 2.50376
LeftToes  -6.27559e-011 -2.10356e-011 8.24929e-012
22
root  -0.920633 37.4541 54.2824 -177.348 36.41 -177.528
RightUpLeg  20.4651 -18.338 -19.4435
RightLeg  12.8297 2.65439 2.58079
RightFoot  -13.5018 0.378404 24.6207
RightToes  -1.74623e-010 0 -2.59999e-017
Spine  1.49961 7.28184 7.1123
Spine1  13.2872 7.56218 -0.353378
HEad  -9.99619 17.0523 -10.667
LeftShoulder1  2.25707 -3.55954 -25.8094
LeftArm  12.8172 20.9692 -31.6855
LeftForeArm  29.1115 -66.555 -23.6899
LeftHand  -0.405195 3.31403 22.3811
RightShoulder  3.03382 5.54293 27.5638
RightArm  2.08351 38.1512 56.3878
RightForeArm  33.5895 70.3412 29.3681
RightHand  0.75777 -8.72218 -26.1999
LeftUpLeg  -39.2736 50.7729 -10.1566
LeftLeg  18.6902 21.7576 6.07792
LeftFoot  3.29978 -1.00066 7.6209
LeftToes  -6.27559e-011 -2.10356e-011 8.24929e-012
23
root  -0.822835 37.4292 51.9165 -179.615 27.59 -177.819
RightUpLeg  22.0504 -20.7549 -22.3659
RightLeg  23.5048 -0.0999551 -0.646405
RightFoot  -1.9042 -2.31874 28.3087
RightToes  -1.74623e-010 0 -2.59999e-017
Spine  -0.407333 9.57809 8.56929
Spine1  12.5376 10.4518 -2.92906
HEad  -2.7179 2.79998 -2.8766
LeftShoulder1  2.27698 -3.74211 -25.257
LeftArm  12.7865 23.2902 -27.3734
LeftForeArm  36.9936 -69.0293 -26.2413
LeftHand  -0.413524 3.24612 22.1697
RightShoulder  2.39464 4.64969 23.199
RightArm  -1.99152 48.4503 57.7857
RightForeArm  61.7137 77.9039 53.1272
RightHand  -0.526248 -3.09424 -25.4785
LeftUpLeg  -35.965 43.8287 -8.94767
LeftLeg  25.3144 17.4471 9.30213
LeftFoot  -0.475568 -0.931126 9.76271
LeftToes  -6.27559e-011 -2.10356e-011 8.24929e-012
24
root  -0.960979 37.5139 49.9011 176.958 17.3358 -178.32
RightUpLeg  14.8729 -16.423 -21.1453
RightLeg  44.9272 -0.516898 -0.442784
RightFoot  20.8073 -6.41468 22.7376
RightToes  -1.74623e-010 0 -2.59999e-017
Spine  -0.327155 10.6605 7.92811
Spine1  12.0528 11.4948 -5.34343
HEad  3.74779 -10.7848 2.25522
LeftShoulder1  2.15752 -3.61288 -24.0933
LeftArm  9.89308 22.283 -24.5381
LeftForeArm  43.2997 -71.4681 -29.9391
LeftHand  -0.216378 4.32948 23.2225
RightShoulder  2.07921 4.10889 21.0585
RightArm  -9.20934 48.2065 48.9887
RightForeArm  111.869 80.4404 97.967
RightHand  -2.25577 2.90928 -30.7453
LeftUpLeg  -28.6062 34.492 -6.31027
LeftLeg  28.4028 17.5737 10.3751
LeftFoot  -3.89884 -0.576393 9.16771
LeftToes  -6.27559e-011 -2.10356e-011 8.24929e-012
25
root  -0.991311 37.4589 48.5303 173.374 6.85678 -178.425
RightUpLeg  1.92757 -16.0623 -21.3407
RightLeg  71.5535 3.24704 10.8829
RightFoot  34.0608 -8.22503 20.059
RightToes  -1.74623e-010 0 -2.59999e-017
Spine  1.14145 10.6364 3.05966
Spine1  12.5494 9.67496 -3.80281
HEad  8.41322 -21.7726 4.33163
LeftShoulder1  2.06399 -3.47409 -23.3199
LeftArm  7.49394 16.5139 -25.2686
LeftForeArm  49.9759 -73.7175 -34.5136
LeftHand  -0.0720423 5.03118 20.4846
RightShoulder  2.49173 4.67062 24.3679
RightArm  -18.1021 37.6359 35.9024
RightForeArm  145.155 78.8463 125.169
RightHand  -3.29162 5.20909 -35.2679
LeftUpLeg  -22.6941 25.6967 -5.14474
LeftLeg  30.813 15.7681 10.3102
LeftFoot  -7.22403 -0.226273 7.4931
LeftToes  -6.27559e-011 -2.10356e-011 8.24929e-012
26
root  -0.916771 38.0677 46.894 169.592 -4.37708 -174.865
RightUpLeg  -12.9342 -19.8906 -22.7243
RightLeg  94.0769 -1.7405 18.5202
RightFoot  37.1003 -7.98559 18.245
RightToes  -1.74623e-010 0 -2.59999e-017
Spine  0.283789 8.89731 -1.73763
Spine1  14.1064 5.08817 3.81385
HEad  10.3337 -31.0824 4.55698
LeftShoulder1  2.06454 -3.56094 -22.9448
LeftArm  7.72201 4.30837 -32.4253
LeftForeArm  53.5787 -74.2026 -35.1659
LeftHand  -0.100734 4.76021 16.7203
RightShoulder  3.16797 5.44331 29.4918
RightArm  -27.7661 22.9733 21.6298
RightForeArm  138.412 79.4904 119.199
RightHand  -2.96194 4.02397 -35.6568
LeftUpLeg  -15.0456 18.3384 -0.887919
LeftLeg  29.4349 13.1448 7.90525
LeftFoot  -9.8487 -0.00923808 5.25719
LeftToes  -6.27559e-011 -2.10356e-011 8.24929e-012
27
root  -0.581153 38.8376 45.1154 163.434 -17.4928 -167.551
RightUpLeg  -26.3727 -25.4037 -27.0373
RightLeg  108.402 -6.73325 18.4122
RightFoot  38.4703 -8.78765 19.404
RightToes  -1.74623e-010 0 -2.59999e-017
Spine  0.858436 5.4529 -7.45135
Spine1  14.1131 -2.11624 14.5667
HEad  10.2308 -38.7389 4.78814
LeftShoulder1  2.05553 -3.68179 -22.2925
LeftArm  11.7733 -12.3753 -45.7983
LeftForeArm  51.0548 -72.2462 -30.19
LeftHand  -0.111896 4.63215 15.4916
RightShoulder  3.52029 5.75007 32.1677
RightArm  -33.9949 9.85174 12.0543
RightForeArm  68.5679 78.4859 58.6582
RightHand  -3.18734 4.22642 -37.404
LeftUpLeg  -8.07451 10.8645 6.64953
LeftLeg  27.9456 7.1824 3.87744
LeftFoot  -11.8965 0.0638967 -0.152962
LeftToes  -6.27559e-011 -2.10356e-011 8.24929e-012
28
root  0.179108 39.5377 43.0682 152.455 -30.0306 -155.471
RightUpLeg  -34.1077 -29.5913 -34.8722
RightLeg  113.982 -8.56836 17.8971
RightFoot  38.6645 -8.86034 19.4814
RightToes  -1.74623e-010 0 -2.59999e-017
Spine  5.93656 1.89619 -12.5041
Spine1  11.0147 -9.32961 25.8294
HEad  9.17784 -43.5674 6.1732
LeftShoulder1  1.99953 -3.83912 -20.8342
LeftArm  20.4468 -28.865 -63.0001
LeftForeArm  47.6592 -69.2227 -24.7827
LeftHand  -0.210441 3.91958 15.9152
RightShoulder  3.68034 5.84841 33.478
RightArm  -37.0761 1.43305 8.12166
RightForeArm  22.4781 64.4355 22.1841
RightHand  -3.42626 4.38926 -39.4058
LeftUpLeg  -4.17118 4.10226 17.813
LeftLeg  28.504 -3.85619 -1.70868
LeftFoot  -12.704 0.0212306 -5.88456
LeftToes  -6.27559e-011 -2.10356e-011 8.24929e-012
29
root  0.629993 40.5626 40.9951 138.378 -36.4086 -139.301
RightUpLeg  -38.6802 -33.015 -42.9718
RightLeg  106.748 -4.60449 14.0704
RightFoot  37.2143 -6.74591 15.4777
RightToes  -1.74623e-010 0 -2.59999e-017
Spine  10.6432 -0.840193 -12.1105
Spine1  8.49672 -13.4454 34.6909
HEad  6.72408 -46.3476 10.9998
LeftShoulder1  1.83883 -3.96231 -18.0413
LeftArm  34.3194 -41.4589 -82.7897
LeftForeArm  43.7702 -65.7143 -20.5912
LeftHand  -0.408523 2.4849 16.1517
RightShoulder  4.05518 6.19232 35.907
RightArm  -39.5726 -4.41345 6.89637
RightForeArm  8.1788 50.1892 12.8991
RightHand  -3.32493 4.08926 -39.429
LeftUpLeg  -3.15798 5.00669 31.1768
LeftLeg  26.4855 -8.49105 -4.17027
LeftFoot  -7.78496 0.220864 -5.48818
LeftToes  -6.27559e-011 -2.10356e-011 8.24929e-012
30
root  0.773795 41.3295 39.1654 127.574 -37.5177 -127.146
RightUpLeg  -41.2822 -36.2834 -48.3655
RightLeg  83.6895 1.19873 12.0589
RightFoot  35.6623 -6.3781 15.2013
RightToes  -1.74623e-010 0 -2.59999e-017
Spine  12.0833 -2.84399 -9.52026
Spine1  8.978 -15.1867 36.774
HEad  3.21655 -47.7701 17.9553
LeftShoulder1  1.59063 -3.6673 -15.3721
LeftArm  49.3969 -47.8292 -101.418
LeftForeArm  38.9494 -62.141 -17.6154
LeftHand  -0.538007 1.71486 16.9126
RightShoulder  4.46567 6.58031 38.2999
RightArm  -41.3626 -10.4389 8.63623
RightForeArm  -0.711237 42.3248 10.2466
RightHand  -3.36665 4.48365 -38.419
LeftUpLeg  -4.2021 15.5591 38.9194
LeftLeg  23.5594 4.07813 2.29273
LeftFoot  -0.787049 0.0438522 -0.423442
LeftToes  -6.27559e-011 -2.10356e-011 8.24929e-012
